<svg xmlns="http://www.w3.org/2000/svg" viewBox="0 0 64 64" role="img" aria-label="SONGBIRDS">
  <rect width="64" height="64" rx="16" fill="#263b32"/>
  <path d="M17 39c7-1 10-6 12-12 2-7 8-11 15-9 5 1 8 5 8 10 0 9-9 16-20 16-6 0-11-2-15-5Z" fill="#f4eee4"/>
  <path d="m50 22 10 4-9 4Z" fill="#b75b49"/>
  <circle cx="45" cy="24" r="2" fill="#263b32"/>
  <path d="M30 29c4 1 7 4 8 8-5 0-9-2-11-5Z" fill="#d9ccb9"/>
  <path d="M13 47h5l2-5 3 9 4-7 3 4h5" fill="none" stroke="#b75b49" stroke-width="2.5" stroke-linecap="round" stroke-linejoin="round"/>
</svg>
